<svg width="39" height="39" viewBox="0 0 39 39" fill="none" xmlns="http://www.w3.org/2000/svg"><ellipse cx="20.208" cy="18.569" rx="14.746" ry="14.2" fill="#16C784"/><path fill-rule="evenodd" clip-rule="evenodd" d="M14.781 38.416c10.449 2.605 21.03-3.752 23.635-14.199C41.021 13.77 34.663 3.188 24.216.584 13.768-2.021 3.187 4.337.583 14.784-2.023 25.231 4.335 35.812 14.78 38.416zM23.81 11.8c2.701.93 4.677 2.325 4.289 4.92-.281 1.9-1.334 2.819-2.732 3.141 1.92 1 2.896 2.532 1.966 5.19-1.155 3.299-3.899 3.577-7.548 2.887l-.885 3.548-2.14-.533.874-3.5a81.417 81.417 0 01-1.705-.443l-.877 3.517-2.137-.533.885-3.555-.603-.156c-.304-.08-.611-.16-.922-.238L9.49 25.35l1.062-2.449s1.577.42 1.556.388c.605.15.874-.245.98-.508l1.4-5.61a13.876 13.876 0 01.226.057 1.783 1.783 0 00-.223-.072l.998-4.004c.027-.454-.13-1.028-.997-1.244.034-.022-1.554-.386-1.554-.386l.57-2.285 2.95.736-.002.011c.444.11.9.215 1.366.321l.877-3.513 2.139.533-.86 3.445a90.56 90.56 0 011.715.403l.853-3.422 2.14.533-.876 3.515zm-6.77 12.743c1.746.46 5.562 1.468 6.169-.97.621-2.492-3.08-3.322-4.885-3.727-.202-.045-.38-.085-.526-.122l-1.175 4.71c.12.03.26.067.417.108zm1.647-6.883c1.456.389 4.63 1.236 5.184-.98.564-2.265-2.521-2.948-4.029-3.282-.17-.038-.319-.07-.44-.101l-1.066 4.271c.1.025.218.057.35.092z" fill="#16C784"/><path d="M19.186 31.636l.01-2.077c-1.86-.136-3.337-.69-4.433-1.662-1.089-.973-1.677-2.256-1.763-3.85h2.862c.074.855.413 1.539 1.016 2.05.61.504 1.385.815 2.326.932l.019-6.288-.794-.212c-3.28-.886-4.921-2.551-4.921-4.995 0-1.465.535-2.687 1.606-3.665 1.071-.98 2.45-1.551 4.137-1.718L19.26 8h1.736l-.01 2.133c1.712.135 3.1.683 4.165 1.643 1.07.96 1.625 2.145 1.662 3.555H24.06c-.086-.745-.403-1.351-.95-1.819-.549-.474-1.26-.77-2.134-.886l-.018 5.927.674.176c3.625.892 5.438 2.665 5.438 5.318 0 1.526-.545 2.791-1.634 3.795-1.084 1.003-2.585 1.575-4.506 1.717l-.01 2.077h-1.735zm1.754-4.607c.991-.13 1.788-.465 2.392-1.006.61-.542.914-1.21.914-2.004 0-.388-.08-.732-.24-1.034a2.18 2.18 0 00-.711-.776 5.25 5.25 0 00-1.025-.544c-.363-.154-.8-.302-1.311-.443l-.019 5.807zm-1.708-8.937l.01-5.457c-.887.135-1.592.452-2.115.95-.517.493-.775 1.087-.775 1.783 0 .375.08.72.24 1.034.166.308.397.57.692.785.296.21.597.384.905.526.308.136.655.262 1.043.379z" fill="#fff"/></svg>